# xmcd
#
# Track frame offsets: 
#        150
#        11705
#        25305
#        40033
#        53735
#        63539
#        74408
#        84018
#        98058
#        109248
#        118293
#        129173
#        145125
#        159873
#        171278
#        180569
#        192339
#        204837
#        217087
#        229368
#
# Disc length: 3240 seconds
#
# Revision: 0
# Processed by: cddbd v1.5.2PL0 Copyright (c) Steve Scherf et al.
# Submitted via: ExactAudioCopy v0.95b4
#
DISCID=150ca614
DTITLE=Jackie Wilson - The History Of Jackie Wilson Volume 1 (Coast to
DTITLE=Coast) Disc 2
DYEAR=2006
DGENRE=R&B
TTITLE0=Baby (I Just Can't Help It)
TTITLE1=My Tale Of Woe
TTITLE2=A Girl Named Tamiko
TTITLE3=Baby Workout
TTITLE4=Shake! Shake! Shake!
TTITLE5=Now That I Want Her
TTITLE6=The New Breed
TTITLE7=Haunted House
TTITLE8=Call Her Up
TTITLE9=Squeeze Her, Tease Her (But Love Her)
TTITLE10=She's All Right
TTITLE11=No Pity In The Naked City
TTITLE12=I Believe I'll Love On
TTITLE13=Think Twice [with La Vern Baker]
TTITLE14=3 Days, 1 Hour, 30 Minutes
TTITLE15=Everything's Gonna Be Fine
TTITLE16=Soul Galore
TTITLE17=For Your Precious Love [with Count Basie]
TTITLE18=I Never Loved A Woman (The Way I Love You) [with Count Basie]
TTITLE19=Shake A Leg
EXTD=
EXTT0=
EXTT1=
EXTT2=
EXTT3=
EXTT4=
EXTT5=
EXTT6=
EXTT7=
EXTT8=
EXTT9=
EXTT10=
EXTT11=
EXTT12=
EXTT13=
EXTT14=
EXTT15=
EXTT16=
EXTT17=
EXTT18=
EXTT19=
PLAYORDER=
